# Blender 4.2.2 LTS
# www.blender.org
mtllib ground.mtl
o Plane
v -0.550282 0.037122 0.768121
v 0.529339 0.037122 0.768121
v -0.550282 0.037122 -0.500117
v 0.529339 0.037122 -0.500117
v 0.140173 0.037122 0.768121
v 0.140173 0.037122 -0.500117
v -0.550282 0.037122 -1.838951
v 0.140173 0.037122 -1.838951
v -0.550282 0.037122 1.790486
v 0.140173 0.037122 1.790486
vn -0.0000 1.0000 -0.0000
vt 0.107268 0.718289
vt 0.000055 0.718289
vt 0.000055 0.368896
vt 0.107268 0.368896
vt 0.297485 0.718289
vt 0.297484 0.368896
vt 0.107268 0.000055
vt 0.297485 0.000055
vt 0.297485 0.999946
vt 0.107268 0.999946
s 0
f 5/1/1 2/2/1 4/3/1 6/4/1
f 1/5/1 5/1/1 6/4/1 3/6/1
f 3/6/1 6/4/1 8/7/1 7/8/1
f 5/1/1 1/5/1 9/9/1 10/10/1
